# xmcd
#
# Track frame offsets:
#	150
#	19930
#	38572
#	54974
#	72178
#	91666
#	107329
#	125214
#	144385
#	162065
#	179111
#	193887
#	209341
#
# Disc length: 2985 seconds
#
# Revision: 0
# Processed by: cddbd v1.5.2PL0 Copyright (c) Steve Scherf et al.
# Submitted via: EasyCDDAExtractor 12.0.0.1
#
DISCID=b20ba70d
DTITLE=Caminhos das Indias - Internacional
DYEAR=1900
DGENRE=
TTITLE0=Nome da faixa 1
TTITLE1=Nome da faixa 2
TTITLE2=Nome da faixa 3
TTITLE3=Nome da faixa 4
TTITLE4=Nome da faixa 5
TTITLE5=Nome da faixa 6
TTITLE6=Nome da faixa 7
TTITLE7=Nome da faixa 8
TTITLE8=Nome da faixa 9
TTITLE9=Nome da faixa 10
TTITLE10=Nome da faixa 11
TTITLE11=Nome da faixa 12
TTITLE12=Nome da faixa 13
EXTD=
EXTT0=
EXTT1=
EXTT2=
EXTT3=
EXTT4=
EXTT5=
EXTT6=
EXTT7=
EXTT8=
EXTT9=
EXTT10=
EXTT11=
EXTT12=
PLAYORDER=
